<svg width="1042" height="1002" viewBox="0 0 1042 1002" fill="none" xmlns="http://www.w3.org/2000/svg">
<rect width="1042" height="1002" fill="white"/>
<path d="M691.544 630.974L775.678 670.085C832.98 696.721 902.745 667.593 917.372 610.927L964 430.286L720.42 519.106L691.544 630.974Z" fill="#41996B"/>
<path d="M349.458 630.974L265.324 670.085C208.022 696.721 138.257 667.593 123.63 610.927L77 430.285L320.58 519.104L349.458 630.974Z" fill="#41996B"/>
<path d="M844.282 586.321V685.226C844.282 734.587 830.734 781.115 806.776 821.907C752.432 914.479 644.636 977.545 520.512 977.545C396.388 977.545 288.566 914.479 234.224 821.907C210.292 781.115 196.718 734.587 196.718 685.226V586.321C196.718 578.144 197.101 570.059 197.814 562.066C211.158 415.364 344.492 299.344 509.031 294.185C512.857 294.07 516.685 294 520.512 294C524.338 294 528.167 294.07 531.993 294.185C616.826 296.858 693.367 329.011 749.447 379.616C802.108 427.158 836.729 491.029 843.184 562.066C843.899 570.059 844.282 578.144 844.282 586.321Z" fill="#56BF8D"/>
<path d="M361.08 730.432C325.119 730.432 295.86 704.019 295.86 671.552C295.86 639.084 325.117 612.671 361.08 612.671C397.043 612.671 426.3 639.084 426.3 671.552C426.3 704.019 397.041 730.432 361.08 730.432Z" fill="white"/>
<path d="M679.932 730.432C643.971 730.432 614.712 704.019 614.712 671.552C614.712 639.084 643.969 612.671 679.932 612.671C715.893 612.671 745.152 639.084 745.152 671.552C745.152 704.019 715.893 730.432 679.932 730.432Z" fill="white"/>
<path d="M383.399 671.552C371.072 671.552 361.08 662.531 361.08 651.402C361.08 644.448 364.982 638.317 370.917 634.696C367.756 634.009 364.474 633.608 361.08 633.608C337.867 633.608 319.049 650.595 319.049 671.552C319.049 692.508 337.867 709.495 361.08 709.495C384.293 709.495 403.112 692.508 403.112 671.552C403.112 668.488 402.665 665.525 401.906 662.671C397.895 668.029 391.104 671.552 383.399 671.552Z" fill="#91643A"/>
<path d="M702.251 671.552C689.924 671.552 679.932 662.531 679.932 651.402C679.932 644.448 683.834 638.317 689.769 634.696C686.608 634.009 683.326 633.608 679.932 633.608C656.719 633.608 637.901 650.595 637.901 671.552C637.901 692.508 656.719 709.495 679.932 709.495C703.145 709.495 721.963 692.508 721.963 671.552C721.963 668.488 721.517 665.525 720.758 662.671C716.745 668.029 709.954 671.552 702.251 671.552Z" fill="#91643A"/>
<path d="M476.296 718.658L520.502 682.508L564.708 718.658H476.296Z" fill="#41996B"/>
<path d="M459.418 589.099L304.577 542.316C283.519 535.954 260.735 546.208 253.686 565.219L248.944 578.013C241.897 597.025 253.255 617.594 274.313 623.958L429.154 670.741C450.212 677.104 472.996 666.849 480.046 647.838L484.787 635.044C491.835 616.032 480.476 595.462 459.418 589.099Z" fill="#41996B"/>
<path d="M581.584 589.099L736.425 542.316C757.483 535.954 780.267 546.208 787.317 565.219L792.058 578.013C799.106 597.025 787.747 617.594 766.689 623.958L611.848 670.741C590.79 677.104 568.006 666.849 560.957 647.838L556.215 635.044C549.168 616.033 560.526 595.462 581.584 589.099Z" fill="#41996B"/>
<path d="M621.161 734.604V761.707C621.161 785.326 611.153 806.859 594.789 823.015C581.838 835.813 564.884 845.251 545.718 849.693C537.664 851.585 529.211 852.585 520.5 852.585C511.789 852.585 503.334 851.586 495.282 849.693C476.116 845.251 459.162 835.813 446.211 823.015C429.845 806.859 419.839 785.324 419.839 761.707V734.604C428.904 737.431 438.087 739.854 447.343 741.873C458.22 744.275 469.217 746.125 480.286 747.4C493.637 749.015 507.083 749.802 520.504 749.802C533.925 749.802 547.37 749.015 560.722 747.4C571.789 746.123 582.785 744.275 593.665 741.873C602.912 739.854 612.096 737.431 621.161 734.604Z" fill="#4D4D4D"/>
<path d="M480.28 747.401L473.286 769.191L469.783 780.11C467.307 787.826 454.942 787.093 453.606 779.151L451.294 765.409L450.329 759.668L447.339 741.874C458.217 744.276 469.213 746.125 480.28 747.401Z" fill="#E6E6E6"/>
<path d="M593.659 741.873L590.669 759.667L589.704 765.407L587.392 779.15C586.056 787.091 573.691 787.824 571.215 780.109L567.712 769.19L560.719 747.4C571.785 746.125 582.78 744.277 593.659 741.873Z" fill="#E6E6E6"/>
<path d="M308.002 496.07C308.002 496.07 309.69 496.411 312.857 497.047C315.997 497.745 320.647 498.664 326.477 500.034C329.408 500.669 332.613 501.522 336.136 502.262C339.645 502.952 343.437 503.7 347.492 504.498C351.531 505.288 355.776 506.222 360.254 507.149C364.762 508.015 369.577 508.784 374.541 509.661C379.525 510.483 384.633 511.581 390.002 512.391C395.367 513.167 400.913 513.972 406.614 514.797C409.452 515.225 412.327 515.657 415.24 516.096C418.173 516.421 421.14 516.749 424.14 517.079C430.145 517.685 436.219 518.565 442.436 519.196C448.683 519.635 455.008 520.189 461.404 520.75C467.788 521.428 474.307 521.516 480.838 521.921C493.906 522.81 507.216 522.74 520.504 523.043C533.794 522.736 547.101 522.788 560.168 521.901C566.701 521.499 573.218 521.388 579.602 520.721C586 520.171 592.321 519.597 598.568 519.162C604.785 518.54 610.857 517.645 616.862 517.041C619.863 516.711 622.829 516.383 625.762 516.06C628.673 515.621 631.548 515.186 634.386 514.755C640.087 513.931 645.633 513.128 650.998 512.351C656.366 511.541 661.477 510.453 666.457 509.623C671.425 508.746 676.229 507.988 680.752 507.111C685.267 506.172 689.553 505.281 693.578 504.444C697.63 503.648 701.415 502.856 704.958 502.203C708.466 501.472 711.63 500.631 714.549 500.003C720.343 498.65 724.991 497.734 728.135 497.04C731.31 496.402 733.004 496.061 733.004 496.061C733.004 496.061 731.53 496.872 728.766 498.392C725.972 499.855 721.91 502.103 716.62 504.777C713.979 506.124 711.06 507.646 707.813 509.157C704.545 510.62 700.964 512.113 697.148 513.759C693.304 515.363 689.213 517.073 684.902 518.873C680.55 520.596 675.851 522.089 670.996 523.826C666.113 525.481 661.036 527.277 655.7 528.909C650.309 530.391 644.737 531.926 639.009 533.501C636.137 534.29 633.22 535.074 630.25 535.805C627.255 536.443 624.225 537.089 621.159 537.741C615.027 539.055 608.735 540.33 602.313 541.527C595.859 542.554 589.269 543.467 582.597 544.421C575.941 545.532 569.118 545.971 562.257 546.57C548.548 548.078 534.515 548.096 520.508 548.54C506.501 548.092 492.47 548.058 478.761 546.552C471.898 545.955 465.079 545.493 458.423 544.394C451.749 543.451 445.163 542.517 438.709 541.495C432.285 540.306 425.997 539.016 419.865 537.705C416.801 537.053 413.769 536.409 410.774 535.771C407.804 535.047 404.889 534.249 402.017 533.464C396.277 531.883 390.691 530.404 385.326 528.871C379.99 527.24 374.911 525.452 370.03 523.792C365.171 522.055 360.482 520.573 356.114 518.841C351.763 517.028 347.635 515.363 343.805 513.712C339.972 512.065 336.386 510.568 333.116 509.105C329.883 507.601 327.006 506.093 324.377 504.754C319.12 502.097 315.062 499.853 312.262 498.392C309.482 496.881 308.002 496.07 308.002 496.07Z" fill="#41996B"/>
<path d="M339.928 422.859C339.928 422.859 341.364 423.148 344.053 423.689C346.722 424.281 350.673 425.062 355.625 426.228C358.115 426.767 360.84 427.493 363.832 428.123C366.813 428.709 370.038 429.343 373.481 430.023C376.914 430.695 380.522 431.487 384.327 432.276C388.157 433.013 392.25 433.666 396.467 434.411C400.703 435.11 405.044 436.043 409.605 436.733C414.164 437.392 418.876 438.075 423.721 438.778C426.132 439.142 428.576 439.51 431.05 439.882C433.542 440.159 436.064 440.436 438.614 440.718C443.717 441.234 448.878 441.98 454.16 442.516C459.468 442.889 464.843 443.36 470.278 443.837C475.703 444.414 481.241 444.488 486.793 444.832C497.897 445.587 509.207 445.528 520.5 445.786C531.793 445.526 543.101 445.571 554.205 444.816C559.757 444.475 565.293 444.38 570.718 443.814C576.155 443.346 581.527 442.858 586.834 442.487C592.116 441.958 597.277 441.198 602.378 440.686C604.928 440.404 607.45 440.128 609.942 439.852C612.416 439.477 614.858 439.108 617.269 438.744C622.114 438.043 626.826 437.36 631.385 436.701C635.947 436.012 640.289 435.087 644.523 434.383C648.744 433.637 652.825 432.993 656.671 432.249C660.51 431.452 664.15 430.695 667.571 429.983C671.014 429.308 674.231 428.633 677.241 428.08C680.224 427.457 682.91 426.744 685.391 426.212C690.315 425.062 694.265 424.283 696.935 423.693C699.634 423.151 701.072 422.861 701.072 422.861C701.072 422.861 699.819 423.549 697.472 424.84C695.097 426.084 691.646 427.993 687.15 430.267C684.906 431.41 682.426 432.703 679.666 433.988C676.888 435.232 673.846 436.5 670.603 437.898C667.337 439.262 663.862 440.714 660.196 442.243C656.497 443.708 652.505 444.977 648.379 446.453C644.231 447.858 639.914 449.385 635.381 450.771C630.8 452.031 626.064 453.335 621.197 454.674C618.756 455.344 616.278 456.009 613.754 456.631C611.211 457.173 608.633 457.721 606.03 458.277C600.82 459.394 595.472 460.477 590.015 461.495C584.533 462.368 578.931 463.142 573.262 463.953C567.607 464.896 561.809 465.27 555.979 465.779C544.328 467.059 532.404 467.076 520.502 467.454C508.6 467.074 496.676 467.043 485.026 465.765C479.194 465.258 473.399 464.863 467.742 463.931C462.071 463.13 456.473 462.338 450.991 461.468C445.532 460.459 440.188 459.362 434.978 458.248C432.375 457.695 429.799 457.146 427.254 456.605C424.728 455.988 422.252 455.31 419.811 454.643C414.934 453.301 410.186 452.044 405.627 450.741C401.094 449.355 396.777 447.835 392.629 446.424C388.499 444.947 384.515 443.688 380.804 442.217C377.107 440.677 373.6 439.262 370.343 437.859C367.087 436.458 364.039 435.186 361.259 433.943C358.511 432.665 356.066 431.383 353.832 430.247C349.366 427.99 345.915 426.082 343.538 424.84C341.185 423.548 339.928 422.859 339.928 422.859Z" fill="#41996B"/>
<path d="M451.294 765.407C458.594 766.917 465.917 768.191 473.288 769.191L468.518 784.058C466.34 790.843 455.466 790.198 454.291 783.214L451.294 765.407Z" fill="white"/>
<path d="M589.704 765.407L586.707 783.214C585.532 790.198 574.658 790.843 572.48 784.058L567.71 769.191C575.081 768.191 582.402 766.915 589.704 765.407Z" fill="white"/>
<path fill-rule="evenodd" clip-rule="evenodd" d="M604.627 201.976L552.559 196.015L529.274 158.851C527.437 155.921 523.649 154.065 519.5 154.065C515.351 154.065 511.563 155.921 509.726 158.851L486.441 196.015L434.374 201.976C430.268 202.445 426.858 204.71 425.576 207.818C424.294 210.926 425.364 214.338 428.333 216.618L466.01 245.547L457.115 286.395C456.414 289.616 458.094 292.871 461.451 294.791C464.806 296.712 469.255 296.966 472.928 295.445L519.5 276.16L566.071 295.446C567.666 296.106 569.407 296.431 571.141 296.431C573.4 296.431 575.65 295.878 577.548 294.791C580.905 292.87 582.585 289.616 581.884 286.395L572.989 245.547L610.665 216.618C613.635 214.337 614.704 210.926 613.423 207.818C612.143 204.711 608.732 202.446 604.627 201.976ZM553.672 236.403C551.103 238.375 549.93 241.218 550.537 244.003L556.667 272.154L524.572 258.863C522.983 258.206 521.241 257.877 519.5 257.877C517.759 257.877 516.017 258.206 514.428 258.863L482.333 272.154L488.463 244.003C489.069 241.218 487.898 238.375 485.328 236.403L459.363 216.466L495.246 212.359C498.796 211.953 501.864 210.197 503.453 207.662L519.5 182.05L535.548 207.662C537.136 210.196 540.204 211.953 543.754 212.359L579.638 216.466L553.672 236.403Z" fill="#E6BD40"/>
<path fill-rule="evenodd" clip-rule="evenodd" d="M604.584 379.401L552.516 373.441L529.232 336.277C527.395 333.346 523.606 331.491 519.458 331.491C515.309 331.491 511.52 333.346 509.683 336.277L486.399 373.441L434.331 379.401C430.226 379.871 426.815 382.136 425.534 385.244C424.252 388.351 425.321 391.764 428.292 394.044L465.967 422.972L457.072 463.82C456.372 467.041 458.052 470.297 461.408 472.217C464.764 474.137 469.212 474.391 472.886 472.87L519.458 453.586L566.028 472.871C567.624 473.532 569.365 473.857 571.098 473.857C573.358 473.857 575.608 473.304 577.505 472.217C580.862 470.296 582.542 467.041 581.842 463.82L572.947 422.972L610.622 394.044C613.592 391.763 614.662 388.351 613.38 385.244C612.1 382.137 608.689 379.872 604.584 379.401ZM553.629 413.829C551.06 415.801 549.887 418.643 550.495 421.428L556.624 449.579L524.529 436.288C522.941 435.631 521.199 435.303 519.458 435.303C517.717 435.303 515.974 435.631 514.386 436.288L482.291 449.579L488.42 421.428C489.026 418.643 487.855 415.801 485.286 413.829L459.32 393.892L495.204 389.785C498.754 389.378 501.822 387.622 503.41 385.088L519.458 359.476L535.505 385.088C537.094 387.621 540.161 389.378 543.711 389.785L579.595 393.892L553.629 413.829Z" fill="#E6BD40"/>
<path fill-rule="evenodd" clip-rule="evenodd" d="M777.504 402.804C796.019 391.439 822.886 392.448 839.901 405.848C858.316 420.354 858.316 443.956 839.901 458.461C754.318 525.873 640.532 563 519.5 563C398.468 563 284.682 525.873 199.099 458.461C180.684 443.956 180.684 420.354 199.099 405.849C216.116 392.447 242.982 391.441 261.496 402.804L462.592 85.9943C462.615 85.9588 462.637 85.9234 462.66 85.8879L490.255 42.4152C499.873 27.263 512.706 25 519.5 25C526.294 25 539.127 27.263 548.744 42.4163L576.342 85.8924C576.363 85.9245 576.384 85.9577 576.404 85.9909L777.504 402.804ZM519.5 545.83C634.709 545.83 743.023 510.489 824.489 446.319C834.404 438.509 834.404 425.801 824.489 417.991C814.573 410.182 798.44 410.179 788.524 417.991C786.379 419.68 784.196 421.343 781.999 422.994C781.874 423.093 781.744 423.188 781.614 423.281C770.492 431.611 758.726 439.44 746.516 446.6C741.686 449.428 734.859 448.642 731.265 444.839C727.671 441.035 728.671 435.658 733.5 432.826C742.944 427.288 752.107 421.321 760.888 415.02L755.751 406.927L730.213 396.352L683.641 415.638C682.047 416.298 680.304 416.624 678.571 416.624C676.311 416.624 674.063 416.071 672.164 414.984C668.807 413.064 667.127 409.809 667.827 406.587L676.722 365.739L639.047 336.811C636.077 334.531 635.007 331.119 636.289 328.011C637.57 324.903 640.981 322.638 645.086 322.168L697.154 316.208L697.657 315.406L572.915 118.887C572.328 118.962 571.735 119.006 571.141 119.006C569.407 119.006 567.666 118.681 566.07 118.02L519.5 98.7346L472.928 118.02C470.788 118.905 468.387 119.172 466.091 118.874L341.342 315.404L341.845 316.207L393.912 322.167C398.018 322.636 401.428 324.902 402.71 328.01C403.992 331.117 402.922 334.529 399.952 336.81L362.276 365.738L371.171 406.586C371.872 409.807 370.192 413.062 366.835 414.982C364.937 416.07 362.688 416.623 360.428 416.623C358.694 416.623 356.953 416.298 355.358 415.637L308.787 396.352L283.249 406.927L278.113 415.018C392.475 496.995 562.625 512.241 697.875 451.216C703.098 448.858 709.758 450.284 712.75 454.398C715.742 458.512 713.933 463.758 708.71 466.115C649.802 492.695 584.641 505.637 519.907 505.638C424.264 505.639 329.543 477.392 257.205 423.157C257.169 423.13 257.135 423.103 257.1 423.077C254.872 421.404 252.662 419.711 250.477 417.99C240.561 410.181 224.428 410.178 214.512 417.99C204.596 425.8 204.596 438.509 214.512 446.319C295.977 510.489 404.291 545.83 519.5 545.83ZM529.248 50.0937C525.773 44.621 521.848 42.1702 519.5 42.1702C517.152 42.1702 513.227 44.621 509.751 50.0937L482.81 92.5373L482.333 94.7271L514.428 81.4362C517.604 80.1221 521.395 80.1221 524.572 81.4362L556.665 94.7271L556.189 92.5373L529.248 50.0937ZM735.283 379.054L739.047 380.612L708.238 332.076C707.507 332.293 706.747 332.46 705.958 332.551L670.074 336.658L696.04 356.595C698.609 358.567 699.78 361.409 699.174 364.194L693.045 392.345L725.14 379.054C728.316 377.74 732.108 377.74 735.283 379.054ZM368.925 336.658L333.041 332.551C332.252 332.46 331.492 332.293 330.761 332.074L299.952 380.611L303.716 379.053C306.891 377.739 310.682 377.739 313.859 379.053L345.954 392.345L339.825 364.194C339.217 361.409 340.39 358.567 342.959 356.595L368.925 336.658Z" fill="#E6BD40"/>
<path d="M609 546L530 552.5L411.5 540.5L294.5 502L202.5 444L207 414L239.5 408.5L267.5 426.5C293.5 440.833 346.1 469.7 348.5 470.5C350.9 471.3 406.5 487.5 434 495.5C469.167 497.667 539.9 502 541.5 502C543.1 502 580.167 497.667 598.5 495.5L671.5 476L734 449.5C754.5 435.833 796.2 408.5 799 408.5C799.35 408.5 803.884 409.004 804.227 409.077L827.5 414L838 439L775.5 486.5L689 525L609 546Z" fill="#18A0FB" stroke="#F2C94C"/>
<path d="M714.5 457L732 447V432L760 412L732 392L669 420L680.5 365L629 327L703.5 319.5L700.5 314L577 116.5L520 94.5L465 116.5L338 317.5L396.5 322L405 327L401 334L361 365L366.5 392V416L332.5 403.5L308 392C305.167 394 298.3 398.3 293.5 399.5C288.7 400.7 278.833 405.333 274.5 407.5C274.667 410.5 275.9 417.2 279.5 420C284 423.5 360 463 366.5 465.5C371.7 467.5 402.667 475.333 417.5 479C457.167 481.333 537.3 486 540.5 486C543.7 486 598.167 478.667 625 475L700.5 447L714.5 457Z" fill="#18A0FB"/>
<path d="M520 81.5C523.6 79.9 546.833 89.5 558 94.5L520 36.5L479.5 98.5C491.5 93.5 516.4 83.1 520 81.5Z" fill="#18A0FB"/>
<path d="M714.5 457L732 447V432L760 412L732 392L669 420L680.5 365L629 327L703.5 319.5L700.5 314L577 116.5L520 94.5L465 116.5L338 317.5L396.5 322L405 327L401 334L361 365L366.5 392V416L332.5 403.5L308 392C305.167 394 298.3 398.3 293.5 399.5C288.7 400.7 278.833 405.333 274.5 407.5C274.667 410.5 275.9 417.2 279.5 420C284 423.5 360 463 366.5 465.5C371.7 467.5 402.667 475.333 417.5 479C457.167 481.333 537.3 486 540.5 486C543.7 486 598.167 478.667 625 475L700.5 447L714.5 457Z" stroke="#F2C94C"/>
<path d="M520 81.5C523.6 79.9 546.833 89.5 558 94.5L520 36.5L479.5 98.5C491.5 93.5 516.4 83.1 520 81.5Z" stroke="#F2C94C"/>
<path d="M462.5 393.5L502.445 390.504C493.492 381.516 498.493 384.308 502.5 390.5L519.5 359L537.5 390.5L577.5 393.5L551.5 419L560.5 456.5L519.5 437L483.5 456.5L475.5 452.5L483.5 419L462.5 393.5Z" fill="#F2C94C"/>
<path d="M502.5 390.5L462.5 393.5L483.5 419L475.5 452.5L483.5 456.5L519.5 437L560.5 456.5L551.5 419L577.5 393.5L537.5 390.5L519.5 359L502.5 390.5ZM502.5 390.5C498.1 383.7 492.5 381 505.5 393.5L537.5 400.5" stroke="#F2C94C"/>
<path d="M500 202L452.5 211V214L478.5 241.5V282.5L524 268.5L568.5 282.5L565 241.5L598 211L544 202L524 168.5L500 202Z" fill="#F2C94C" stroke="#F2C94C"/>
<path d="M713 328C713 331 713.9 336.9 717.5 336.5L740 382L730.5 377.5L689.5 395.5L700.5 360.5L662 336.5L713 328Z" fill="#F2C94C" stroke="#F2C94C"/>
<path d="M388.5 333.5L328 324L291 388.5L312 385.5L354.5 402V361L388.5 333.5Z" fill="#F2C94C" stroke="#F2C94C"/>
</svg>
