<?xml version="1.0" encoding="utf-8"?>
<!-- Svg Vector Icons : http://www.onlinewebfonts.com/icon -->
<!DOCTYPE svg PUBLIC "-//W3C//DTD SVG 1.1//EN" "http://www.w3.org/Graphics/SVG/1.1/DTD/svg11.dtd">
<svg version="1.1" xmlns="http://www.w3.org/2000/svg" xmlns:xlink="http://www.w3.org/1999/xlink" x="0px" y="0px" viewBox="0 0 256 256" enable-background="new 0 0 256 256" xml:space="preserve">
<metadata> Svg Vector Icons : http://www.onlinewebfonts.com/icon </metadata>
<g><g><g><path fill="#E8D161" d="M73.7,16.8c27.6,21.6,57.2,46.4,74.9,63.1L152,83l-69.8,69.9c-56.8,56.8-70.1,70.3-70.9,72.2c-1.6,3.3-1.6,9.2,0,12.4c1.4,3,4.2,5.7,7.1,7.1c3.3,1.6,9.1,1.6,12.4,0c1.9-0.9,15.4-14.2,72.2-70.9l69.9-69.8l3.2,3.4c16.9,17.9,43.1,49.1,64,76.1l5.9,7.5l-0.3-4.1c-0.5-6-2.4-16.5-4.2-23.9c-6.9-27.3-21.2-54.8-40.3-77.8l-4.3-5.2l4.8-4.8l4.7-4.8L195.9,60l-10.5-10.5l-4.7,4.7l-4.8,4.8l-5.2-4.3C147.4,35.3,118.4,20.5,91,14c-6.3-1.5-16.7-3.2-21.9-3.7L65,9.9L73.7,16.8z M112.4,31.2c18.2,7.1,36.9,18.3,52.7,31.6L169,66l-5,5l-4.9,5l-1.9-1.7c-1.1-0.9-5.3-4.8-9.5-8.5c-9.1-8.3-23.6-20.8-34.8-30.1c-4.6-3.7-8.5-7.1-8.8-7.3C103.4,27.7,105.3,28.3,112.4,31.2z M189.2,67l3.5,3.5l-6.5,6.5c-6.4,6.4-6.5,6.5-6.3,4.8c0.6-3.6-1.9-6.2-5.5-5.7l-1.8,0.3l6.4-6.5c3.5-3.5,6.5-6.4,6.6-6.4C185.6,63.6,187.3,65.1,189.2,67z M170.4,80.4c-0.2,1.9-0.1,2.2,1.4,3.7c1.6,1.6,1.8,1.7,3.8,1.4l2.1-0.2l-8,8c-4.4,4.4-8.2,8-8.5,8c-0.6,0-6.7-6.1-6.7-6.7c0-0.3,15.6-16.4,15.9-16.4C170.6,78.3,170.5,79.2,170.4,80.4z M195.3,93.5c13.2,16.5,23,33.3,30,51.4c2.3,5.9,2.8,7.6,2.2,6.9c-0.2-0.3-4.6-5.4-9.6-11.5c-10.3-12.4-19.1-22.6-28.3-32.7c-3.4-3.7-7-7.7-7.9-8.8L180,97l4.9-4.9c3.9-4,5-4.8,5.5-4.4C190.8,87.9,193,90.6,195.3,93.5z M150.9,105.3l3.5,3.5l-63.6,63.6c-50.9,50.9-63.9,63.6-65.1,63.9c-3.3,0.7-6.6-2.6-5.9-5.9c0.3-1.2,13-14.1,63.8-65c34.9-34.9,63.6-63.5,63.7-63.5C147.3,101.8,149,103.4,150.9,105.3z"/>
<path fill="#E8D161" d="M145.2,184.5l-25.8,16.7l-10.5,22.4l-10.5,22.4l36.8,0.1c20.2,0,53.4,0,73.7,0l36.8-0.1l-10.5-22.4l-10.5-22.4l-26.2-16.7c-14.4-9.2-26.6-16.7-26.9-16.7C171.3,167.8,159.3,175.3,145.2,184.5z M180.4,200.3c6.5,10.4,11.9,19,12.1,19.4c0.3,0.5-2.7,15.4-3.2,16.3c-0.3,0.5-75.3,0.6-75.3,0c0-0.2,3-6.6,6.6-14.3l6.5-13.9l20.3-13.1c11.2-7.2,20.5-13.1,20.7-13.1C168.5,181.6,174,190,180.4,200.3z M202.3,198.5l14.8,9.4l6.5,13.9c3.6,7.7,6.6,14.1,6.6,14.2c0,0.2-6.8,0.4-15.2,0.4c-12.5,0-15.2-0.1-15.2-0.6c0-0.3,0.8-4.4,1.8-9.1l1.8-8.5l-9.6-15.3c-5.3-8.4-9.6-15.4-9.6-15.6C184.1,187,184,186.9,202.3,198.5z"/></g></g></g>
</svg>