<?xml version="1.0" encoding="utf-8"?>
<!-- Generator: Adobe Illustrator 27.5.0, SVG Export Plug-In . SVG Version: 6.00 Build 0)  -->
<svg version="1.1" xmlns="http://www.w3.org/2000/svg" xmlns:xlink="http://www.w3.org/1999/xlink" x="0px" y="0px"
	 viewBox="0 0 500 500" style="enable-background:new 0 0 500 500;" xml:space="preserve">
<g id="BACKGROUND">
</g>
<g id="OBJECTS">
	<path style="fill:#0C0904;" d="M252.308,88c0,0-3.73-8.75-14.99-12c0,0,6.115-0.125,10.99,4.125c0,0-5.605-6.5-10.99-7.625
		c0,0,3.24-0.625,6.115,1.25c0,0-2.98-2.75-6.115-3c0,0,2.24-4.625,6.24-8.125c0,0,5.25,4.5,6,6.125l-5.25-7l4.5-4.25
		c0,0,2.75,3.375,5.125,9.625c0,0-1-5.75-3.875-10.25c0,0,5.75-0.375,8.25,8.625c0,0-1.625-7.5-4.75-10.125
		c0,0,14.375-3.5,24.875,10.375c0,0-2.25,3-3.375,6.75c0,0,2.625-4.75,4.625-6l6.5,11.5l-3.75,5.75l3.75-4.375l2,7.75l-3.625,4.625
		l3.625-2.75l0.875,4.5l-3.125,0.75l3.125,0.875l1.375,7.75c0,0,0,5.25,1,6.375s1.125,7.25,1.125,7.25s1.5,10,0.625,10.625
		c0,0,5.5-4.875,5.875-4.875s5.125-1,7.625-0.75c0,0,3.125-3.5,5.75-4s15.75,17.375,15.75,17.375s12.125,2.25,16,16.5
		c0,0,0.104,10.64,1.479,11.39s8.044,8.412,8.169,11.844l-0.613,2.655c1.285,3.52,4.898,9.836,4.493,14.703
		c0,0,7.071,8.899,8.222,12.407c0,0,3.5,5.375,4.375,15.5s2.625,17.625,3.75,19s2.5,4.125,2.375,7s-0.484,24.75,0.008,26.125
		c0.492,1.375-3.883,1.75-3.883,1.75s-2.375,1.25-4.5,1l-11.625,0.033c0,0-1.5-6.783-1.25-7.283s2.5-2.125,2.5-2.125
		s-0.875-4.875-4.625-5.625c0,0-8.625,6.5-13.375,0.125c0,0-1.25-1.625,0.625-2.5s5.25,0.375,11.25-4s9.5-4.5,9.5-4.5
		s-3.375-11.5-6.625-17.625s-12.375-13.875-13.875-24c0,0-5.375-0.875-7.75-4.125c0,0-2.875,10.25-14.375,21.5
		c0,0-1.625,2.25-1.75,3.875s-0.125,11.25-5,16.5c0,0-1.875,1.625-1.375,3.5s4.375,7.625,4.5,9c0,0,1.625-0.125,1.375,1.25
		l0.5,3.125l1,0.875c0,0,1.375,7.5,1.25,9.125L316.558,272c0,0-2.875,17.875,5.25,30.5c0,0,4,7.625-5.5,13.5l0.375,30.625
		c0,0,5.625-3.25,7-3.25s4.875,1.125,4.75,1.875c0,0,11.875,2.875,20.625,14.5s20,18,20,18l1,2c0,0,18,8.75,19,14.625v1.5
		c0,0,1.625-0.625,2.375,0.875s-1.5,4.375-1.5,4.375s-6.375,9-8.5,14.25s-6.375,12.625-13.25,14.5s-16.125,1.25-16.875-2.125
		c0,0-2.25-0.875-1.5-4s3.5-1.125,5.25-4.25c0,0-0.375-1.375,1.25-1.625l1.5-3.5c0,0-0.375-2.5,1.375-3.125l3.125-10.375
		c0,0-8.125-8.25-17-10.75s-25.375-8.25-25.375-8.25s-16,2.375-22.875-0.5s-13.375-8.125-13-8.875s4-3,4-3s-1.375-6-2.5-7
		s-10.375-11.875-10.75-33.125c0,0-19.875,1.5-38.75-19.5c0,0-13,1.375-18,0.875c0,0-2.75,0.25-3.375,0.875s-4.875,7.125-7,8.25v2.5
		c0,0,4.625,2.625,4,6.25s-2.625,3.625-3.25,5.5s-1.25,13.125-11.125,19.625s-24.25,23.875-24.25,23.875s0,2.25-2.25,1.5
		c0,0-1.5,2.125-1.625,5.375s0.375,7.5-1.75,8.875c0,0,1.5,1.875-1.625,2.875c0,0-10.375,0.875-16.75-1s-12.125,2.25-20.875,1.625
		s-13.125-0.875-13-4.625c0,0-1.25-1.875-0.625-3.5s7-0.375,9.625-3.375c0,0,1.75-2,3.125-0.875l3.625-1.75c0,0,1-2.25,3.375-1
		l8.125-5c0,0,0.875-2.5,3.75-1.375l8-5.125l-1.125-1.875l2.25-3c0,0,9.625-11.75,13.125-21.75s6.5-18.875,10.375-22.375
		c0,0-0.125-19.25,0.5-20.375s11.5-15.75,14.25-7.875c0,0,3-0.75,5.125-2.5s4.25-5.125,9.5-8.25c0,0,0.125-5,1-5.875l16.5-11.75
		l17-9.625l-1.375-1c0,0-4.25,3.125-4.875,0.125c0,0-2.875,1.625-4.125-1.625c0,0-3.75,0.483-3.25-2.946c0,0-4-0.179-2.5-4.554
		l1.75-3.875l-5.625-4l-16,13.375c0,0-16.625-7.625-20.25-16c0,0,4.25-4.125,9.125-1.375s2.5,8.898,7,9.824c0,0-3.75-9.574-3-16.949
		l8.25,2.125l-8.625-4.75l-0.375-3l-67.5-64.5c0,0-28.75-23.125-36.875-44.125c0,0,20,8.25,37.25,23.5s78.75,72.875,78.75,72.875
		l3.125-0.125l5.5,6.375l-2.625-7.25c0,0,10.875-0.625,17.625,3.125c0,0-1.375-3.5-3.625-4.625s-10.625,0.125-8.5-12.75
		c0,0,13,5,18.75,18.25l-11.5,19.375l3.875,4c0,0,3.653-4.125,9.952-6.75l2.548-2.5l0.125-1.75l13.5-11.875c0,0-1.5-4.25-0.75-6.875
		c0,0-6.625-5.875-6.75-11s3.625-17.75,3.625-21.25s-0.125-12.125,4.75-13.25l-0.5-4.5l0.625-1.25l-0.875-0.875l-0.125-4.375
		l2.875-2.625l-3.5-5.375l1.75,5.75l-1.125,1.125c0,0-8.5-23.125-8.875-24.375l0.25-1.875l-0.5-5.25l-1.25-1l-0.625-11.375
		l1.625-2.625c0,0,0.625-3.5,4.25-5.5l-2.375-5.75L252.308,88z"/>
</g>
</svg>
