<?xml version="1.0" encoding="utf-8"?><!-- Uploaded to: SVG Repo, www.svgrepo.com, Generator: SVG Repo Mixer Tools -->
<svg width="800px" height="800px" viewBox="0 0 24 24" id="Line_Color" data-name="Line Color" xmlns="http://www.w3.org/2000/svg"><path id="secondary" d="M10,12a11,11,0,0,1,6,3,9.46,9.46,0,0,0,2-6,9.46,9.46,0,0,0-2-6,11,11,0,0,1-6,3Z" style="fill:none;stroke:#2ca9bc;stroke-linecap:round;stroke-linejoin:round;stroke-width:2px"></path><path id="primary" d="M7,3H9a1,1,0,0,1,1,1V19a2,2,0,0,1-2,2H8a2,2,0,0,1-2-2V4A1,1,0,0,1,7,3Z" transform="translate(16 24) rotate(180)" style="fill:none;stroke:#000000;stroke-linecap:round;stroke-linejoin:round;stroke-width:2px"></path></svg>